<svg width="383" height="58" viewBox="0 0 383 58" fill="none" xmlns="http://www.w3.org/2000/svg">
<g clip-path="url(#clip0_148_219)">
<path d="M16.5863 37.814C16.2503 38.102 15.7223 38.354 15.0023 38.57C14.3063 38.786 13.5383 38.894 12.6983 38.894C11.6903 38.894 10.8263 38.75 10.1063 38.462C9.38634 38.15 8.89434 37.73 8.63034 37.202C8.36634 36.65 8.04234 35.942 7.65834 35.078C7.27434 34.19 6.86634 33.206 6.43434 32.126C6.02634 31.046 5.59434 29.906 5.13834 28.706C4.70634 27.482 4.28634 26.246 3.87834 24.998C3.47034 23.75 3.08634 22.526 2.72634 21.326C2.36634 20.126 2.05434 18.998 1.79034 17.942C2.12634 17.606 2.60634 17.306 3.23034 17.042C3.87834 16.754 4.56234 16.61 5.28234 16.61C6.17034 16.61 6.89034 16.802 7.44234 17.186C8.01834 17.546 8.43834 18.23 8.70234 19.238C9.35034 21.59 9.99834 23.846 10.6463 26.006C11.3183 28.142 12.0143 30.374 12.7343 32.702H12.9503C13.5983 30.446 14.2583 27.986 14.9303 25.322C15.6263 22.658 16.2863 20.006 16.9103 17.366C17.3423 17.15 17.7983 16.97 18.2783 16.826C18.7823 16.682 19.3463 16.61 19.9703 16.61C20.8583 16.61 21.6143 16.814 22.2383 17.222C22.8623 17.606 23.1743 18.254 23.1743 19.166C23.1743 19.694 23.0423 20.462 22.7783 21.47C22.5383 22.478 22.2143 23.618 21.8063 24.89C21.4223 26.138 20.9783 27.446 20.4743 28.814C19.9943 30.182 19.5023 31.478 18.9983 32.702C18.5183 33.902 18.0623 34.97 17.6303 35.906C17.1983 36.818 16.8503 37.454 16.5863 37.814ZM29.8889 17.366C30.2969 17.126 30.9089 16.898 31.7249 16.682C32.5649 16.466 33.4049 16.358 34.2449 16.358C35.4449 16.358 36.5009 16.538 37.4129 16.898C38.3489 17.234 38.9489 17.774 39.2129 18.518C39.6449 19.766 40.1129 21.218 40.6169 22.874C41.1209 24.53 41.6249 26.246 42.1289 28.022C42.6329 29.774 43.1249 31.514 43.6049 33.242C44.0849 34.946 44.5049 36.458 44.8649 37.778C44.5769 38.114 44.1449 38.378 43.5689 38.57C42.9929 38.786 42.3089 38.894 41.5169 38.894C40.9409 38.894 40.4489 38.846 40.0409 38.75C39.6569 38.654 39.3329 38.51 39.0689 38.318C38.8289 38.126 38.6249 37.874 38.4569 37.562C38.3129 37.25 38.1809 36.89 38.0609 36.482L37.4129 33.998H30.8969C30.7049 34.718 30.5129 35.462 30.3209 36.23C30.1289 36.998 29.9369 37.742 29.7449 38.462C29.4089 38.582 29.0489 38.678 28.6649 38.75C28.3049 38.846 27.8609 38.894 27.3329 38.894C26.1089 38.894 25.1969 38.69 24.5969 38.282C24.0209 37.85 23.7329 37.262 23.7329 36.518C23.7329 36.182 23.7809 35.846 23.8769 35.51C23.9729 35.174 24.0809 34.778 24.2009 34.322C24.3689 33.674 24.5969 32.87 24.8849 31.91C25.1969 30.95 25.5329 29.918 25.8929 28.814C26.2529 27.686 26.6369 26.534 27.0449 25.358C27.4529 24.182 27.8369 23.078 28.1969 22.046C28.5569 20.99 28.8809 20.054 29.1689 19.238C29.4809 18.422 29.7209 17.798 29.8889 17.366ZM34.2089 22.01C33.8729 23.018 33.4889 24.146 33.0569 25.394C32.6489 26.618 32.2769 27.866 31.9409 29.138H36.4049C36.0689 27.842 35.7209 26.582 35.3609 25.358C35.0249 24.11 34.7129 22.994 34.4249 22.01H34.2089ZM54.1512 30.434V38.39C53.8872 38.462 53.4672 38.534 52.8912 38.606C52.3152 38.678 51.7512 38.714 51.1992 38.714C50.6472 38.714 50.1552 38.666 49.7232 38.57C49.3152 38.498 48.9672 38.354 48.6792 38.138C48.3912 37.922 48.1752 37.622 48.0312 37.238C47.8872 36.854 47.8152 36.35 47.8152 35.726V16.718C48.0792 16.67 48.4992 16.61 49.0752 16.538C49.6512 16.442 50.2032 16.394 50.7312 16.394C51.2832 16.394 51.7632 16.442 52.1712 16.538C52.6032 16.61 52.9632 16.754 53.2512 16.97C53.5392 17.186 53.7552 17.486 53.8992 17.87C54.0432 18.254 54.1152 18.758 54.1152 19.382V25.106L61.6032 16.502C63.2352 16.502 64.3992 16.814 65.0952 17.438C65.8152 18.038 66.1752 18.758 66.1752 19.598C66.1752 20.222 66.0192 20.81 65.7072 21.362C65.3952 21.914 64.8912 22.538 64.1952 23.234L59.6952 27.734C60.2952 28.406 60.9192 29.09 61.5672 29.786C62.2152 30.482 62.8512 31.178 63.4752 31.874C64.0992 32.546 64.6992 33.194 65.2752 33.818C65.8752 34.442 66.4152 35.006 66.8952 35.51C66.8952 36.038 66.7992 36.506 66.6072 36.914C66.4152 37.322 66.1512 37.67 65.8152 37.958C65.5032 38.246 65.1432 38.462 64.7352 38.606C64.3272 38.75 63.8952 38.822 63.4392 38.822C62.4552 38.822 61.6512 38.582 61.0272 38.102C60.4032 37.598 59.8032 37.01 59.2272 36.338L54.1512 30.434ZM75.0295 17.366C75.4375 17.126 76.0495 16.898 76.8655 16.682C77.7055 16.466 78.5455 16.358 79.3855 16.358C80.5855 16.358 81.6415 16.538 82.5535 16.898C83.4895 17.234 84.0895 17.774 84.3535 18.518C84.7855 19.766 85.2535 21.218 85.7575 22.874C86.2615 24.53 86.7655 26.246 87.2695 28.022C87.7735 29.774 88.2655 31.514 88.7455 33.242C89.2255 34.946 89.6455 36.458 90.0055 37.778C89.7175 38.114 89.2855 38.378 88.7095 38.57C88.1335 38.786 87.4495 38.894 86.6575 38.894C86.0815 38.894 85.5895 38.846 85.1815 38.75C84.7975 38.654 84.4735 38.51 84.2095 38.318C83.9695 38.126 83.7655 37.874 83.5975 37.562C83.4535 37.25 83.3215 36.89 83.2015 36.482L82.5535 33.998H76.0375C75.8455 34.718 75.6535 35.462 75.4615 36.23C75.2695 36.998 75.0775 37.742 74.8855 38.462C74.5495 38.582 74.1895 38.678 73.8055 38.75C73.4455 38.846 73.0015 38.894 72.4735 38.894C71.2495 38.894 70.3375 38.69 69.7375 38.282C69.1615 37.85 68.8735 37.262 68.8735 36.518C68.8735 36.182 68.9215 35.846 69.0175 35.51C69.1135 35.174 69.2215 34.778 69.3415 34.322C69.5095 33.674 69.7375 32.87 70.0255 31.91C70.3375 30.95 70.6735 29.918 71.0335 28.814C71.3935 27.686 71.7775 26.534 72.1855 25.358C72.5935 24.182 72.9775 23.078 73.3375 22.046C73.6975 20.99 74.0215 20.054 74.3095 19.238C74.6215 18.422 74.8615 17.798 75.0295 17.366ZM79.3495 22.01C79.0135 23.018 78.6295 24.146 78.1975 25.394C77.7895 26.618 77.4175 27.866 77.0815 29.138H81.5455C81.2095 27.842 80.8615 26.582 80.5015 25.358C80.1655 24.11 79.8535 22.994 79.5655 22.01H79.3495ZM112.72 37.778C112.384 38.114 111.892 38.366 111.244 38.534C110.62 38.726 109.864 38.822 108.976 38.822C108.088 38.822 107.248 38.69 106.456 38.426C105.664 38.162 105.016 37.526 104.512 36.518L100.948 29.246C100.588 28.502 100.264 27.806 99.9758 27.158C99.6878 26.486 99.3758 25.718 99.0398 24.854L98.8238 24.89C98.9198 26.186 98.9678 27.506 98.9678 28.85C98.9918 30.194 99.0038 31.514 99.0038 32.81V38.39C98.7398 38.462 98.3318 38.534 97.7798 38.606C97.2518 38.678 96.7238 38.714 96.1958 38.714C95.6678 38.714 95.1998 38.678 94.7918 38.606C94.3838 38.534 94.0478 38.39 93.7838 38.174C93.5198 37.958 93.3158 37.67 93.1718 37.31C93.0278 36.926 92.9558 36.434 92.9558 35.834V17.834C93.2918 17.354 93.8078 16.994 94.5038 16.754C95.1998 16.514 95.9438 16.394 96.7358 16.394C97.6238 16.394 98.4638 16.538 99.2558 16.826C100.072 17.09 100.72 17.714 101.2 18.698L104.8 25.97C105.16 26.714 105.484 27.422 105.772 28.094C106.06 28.742 106.372 29.498 106.708 30.362L106.888 30.326C106.792 29.03 106.732 27.734 106.708 26.438C106.684 25.142 106.672 23.846 106.672 22.55V16.718C106.936 16.646 107.332 16.574 107.86 16.502C108.412 16.43 108.952 16.394 109.48 16.394C110.536 16.394 111.34 16.586 111.892 16.97C112.444 17.33 112.72 18.098 112.72 19.274V37.778ZM116.381 21.758C116.213 21.494 116.057 21.134 115.913 20.678C115.769 20.222 115.697 19.742 115.697 19.238C115.697 18.302 115.901 17.63 116.309 17.222C116.741 16.814 117.293 16.61 117.965 16.61H133.661C133.829 16.874 133.985 17.234 134.129 17.69C134.273 18.146 134.345 18.626 134.345 19.13C134.345 20.066 134.129 20.738 133.697 21.146C133.289 21.554 132.749 21.758 132.077 21.758H128.081V38.39C127.817 38.462 127.397 38.534 126.821 38.606C126.269 38.678 125.717 38.714 125.165 38.714C124.613 38.714 124.121 38.666 123.689 38.57C123.281 38.498 122.933 38.354 122.645 38.138C122.357 37.922 122.141 37.622 121.997 37.238C121.853 36.854 121.781 36.35 121.781 35.726V21.758H116.381ZM143.693 38.39C143.429 38.462 143.009 38.534 142.433 38.606C141.881 38.678 141.329 38.714 140.777 38.714C140.225 38.714 139.733 38.666 139.301 38.57C138.893 38.498 138.545 38.354 138.257 38.138C137.969 37.922 137.753 37.622 137.609 37.238C137.465 36.854 137.393 36.35 137.393 35.726V16.718C137.657 16.67 138.077 16.61 138.653 16.538C139.229 16.442 139.781 16.394 140.309 16.394C140.861 16.394 141.341 16.442 141.749 16.538C142.181 16.61 142.541 16.754 142.829 16.97C143.117 17.186 143.333 17.486 143.477 17.87C143.621 18.254 143.693 18.758 143.693 19.382V38.39ZM148.362 20.066C148.362 19.034 148.662 18.218 149.262 17.618C149.862 17.018 150.678 16.718 151.71 16.718H163.59C163.758 16.982 163.902 17.33 164.022 17.762C164.166 18.194 164.238 18.65 164.238 19.13C164.238 20.042 164.034 20.69 163.626 21.074C163.242 21.458 162.726 21.65 162.078 21.65H154.482V24.998H162.582C162.75 25.262 162.894 25.61 163.014 26.042C163.158 26.45 163.23 26.894 163.23 27.374C163.23 28.286 163.038 28.934 162.654 29.318C162.27 29.702 161.754 29.894 161.106 29.894H154.482V33.674H163.734C163.902 33.938 164.046 34.286 164.166 34.718C164.31 35.15 164.382 35.606 164.382 36.086C164.382 36.998 164.178 37.658 163.77 38.066C163.386 38.45 162.87 38.642 162.222 38.642H151.71C150.678 38.642 149.862 38.342 149.262 37.742C148.662 37.142 148.362 36.326 148.362 35.294V20.066Z" fill="#DA251D"/>
<path d="M225.403 58C209.092 58 195.883 45.0237 195.883 29C195.883 12.9763 209.092 0 225.403 0C232.208 0 238.912 2.35932 244.216 6.58644C247.518 9.24068 250.22 12.6814 252.021 16.417C252.422 17.1051 252.021 17.9898 251.321 18.3831C250.621 18.7763 249.72 18.3831 249.32 17.6949C247.618 14.3525 245.217 11.3051 242.315 8.84746C237.612 5.01356 231.607 2.85085 225.403 2.85085C210.793 2.85085 198.885 14.5492 198.885 28.9017C198.885 43.2542 210.793 55.0508 225.403 55.0508C235.71 55.0508 245.117 49.1525 249.52 39.9119C249.82 39.1254 250.721 38.8305 251.521 39.2237C252.322 39.5186 252.622 40.4034 252.222 41.1898C247.418 51.4136 236.911 58 225.403 58Z" fill="#006A4E"/>
<path d="M203.088 47.7763C194.282 47.7763 188.077 45.417 186.376 40.9932C184.575 36.1763 188.177 29.9831 196.583 23.7898C197.284 23.2983 198.184 23.3966 198.685 24.0848C199.185 24.7729 199.085 25.6576 198.384 26.1492C191.38 31.3593 187.977 36.5695 189.178 40.0102C191.18 45.3187 204.989 47.1865 224.803 41.1898C225.603 40.9932 226.404 41.3864 226.704 42.1729C226.904 42.9593 226.504 43.7458 225.703 44.0407C217.298 46.5966 209.492 47.7763 203.088 47.7763Z" fill="#006A4E"/>
<path d="M263.029 15.0407C262.429 15.0407 261.828 14.6475 261.628 14.0576C260.327 10.617 254.323 8.84746 245.517 9.24069H243.215C242.415 9.24069 241.714 8.55255 241.714 7.76611C241.714 6.97967 242.415 6.29153 243.215 6.29153H245.417C255.824 5.80001 262.629 8.15933 264.43 13.0746C264.73 13.861 264.33 14.6475 263.529 14.9424C263.329 15.0407 263.229 15.0407 263.029 15.0407Z" fill="#006A4E"/>
<path d="M225.403 43.8441C225.203 43.8441 225.003 43.8441 224.803 43.7458L217.498 40.4034C216.697 40.1085 216.397 39.2237 216.797 38.4373C217.197 37.6509 217.998 37.3559 218.799 37.7492L226.104 41.0915C226.904 41.3864 227.204 42.2712 226.804 43.0576C226.504 43.5492 226.004 43.8441 225.403 43.8441Z" fill="#006A4E"/>
<path d="M222.001 51.0203C221.801 51.0203 221.6 51.0204 221.4 50.922C220.6 50.6271 220.3 49.7424 220.7 48.9559L224.102 41.7797C224.502 40.9932 225.303 40.6983 226.104 41.0915C226.904 41.3865 227.204 42.2712 226.804 43.0576L223.402 50.1356C223.102 50.7254 222.601 51.0203 222.001 51.0203Z" fill="#006A4E"/>
<path d="M234.009 40.7966C233.809 40.7966 233.609 40.7966 233.409 40.6983L221.4 35.2915C220.8 34.9966 220.4 34.3085 220.6 33.6203C220.8 32.9322 221.3 32.4407 222.001 32.4407L233.909 32.0475L238.212 29.4915L231.507 22.4136C231.207 22.1186 231.107 21.7254 231.107 21.3322C231.107 20.939 231.307 20.5458 231.607 20.2508C231.808 20.1525 233.309 18.8746 236.311 18.8746C240.013 18.8746 244.316 20.7424 249.119 24.2814L259.327 19.661C259.927 19.3661 260.828 19.2678 261.828 19.2678C263.73 19.2678 267.232 19.7593 268.133 21.8237C268.533 22.7085 268.933 24.2814 267.132 25.7559C266.231 26.4441 264.83 27.1322 263.129 27.9186L234.609 40.6983C234.409 40.7966 234.209 40.7966 234.009 40.7966ZM228.405 35.1932L234.009 37.6508L261.728 25.2644C263.229 24.5763 265.131 23.7898 265.331 23.2983C265.331 23.2983 265.331 23.2 265.231 23.1017C265.03 22.8068 263.529 22.3153 261.628 22.3153C260.928 22.3153 260.527 22.4136 260.327 22.5119L249.32 27.4271C248.819 27.6237 248.219 27.6237 247.719 27.2305C242.115 22.8068 238.312 21.922 236.111 21.922C235.71 21.922 235.31 21.922 234.91 22.0203L241.414 28.8034C241.714 29.0983 241.915 29.5898 241.814 29.983C241.714 30.3763 241.514 30.7695 241.114 31.0644L234.91 34.8C234.71 34.8983 234.409 34.9966 234.209 34.9966L228.405 35.1932Z" fill="#006A4E"/>
<path d="M302.882 37.814C302.546 38.102 302.018 38.354 301.298 38.57C300.602 38.786 299.834 38.894 298.994 38.894C297.986 38.894 297.122 38.75 296.402 38.462C295.682 38.15 295.19 37.73 294.926 37.202C294.662 36.65 294.338 35.942 293.954 35.078C293.57 34.19 293.162 33.206 292.73 32.126C292.322 31.046 291.89 29.906 291.434 28.706C291.002 27.482 290.582 26.246 290.174 24.998C289.766 23.75 289.382 22.526 289.022 21.326C288.662 20.126 288.35 18.998 288.086 17.942C288.422 17.606 288.902 17.306 289.526 17.042C290.174 16.754 290.858 16.61 291.578 16.61C292.466 16.61 293.186 16.802 293.738 17.186C294.314 17.546 294.734 18.23 294.998 19.238C295.646 21.59 296.294 23.846 296.942 26.006C297.614 28.142 298.31 30.374 299.03 32.702H299.246C299.894 30.446 300.554 27.986 301.226 25.322C301.922 22.658 302.582 20.006 303.206 17.366C303.638 17.15 304.094 16.97 304.574 16.826C305.078 16.682 305.642 16.61 306.266 16.61C307.154 16.61 307.91 16.814 308.534 17.222C309.158 17.606 309.47 18.254 309.47 19.166C309.47 19.694 309.338 20.462 309.074 21.47C308.834 22.478 308.51 23.618 308.102 24.89C307.718 26.138 307.274 27.446 306.77 28.814C306.29 30.182 305.798 31.478 305.294 32.702C304.814 33.902 304.358 34.97 303.926 35.906C303.494 36.818 303.146 37.454 302.882 37.814ZM318.93 38.39C318.666 38.462 318.246 38.534 317.67 38.606C317.118 38.678 316.566 38.714 316.014 38.714C315.462 38.714 314.97 38.666 314.538 38.57C314.13 38.498 313.782 38.354 313.494 38.138C313.206 37.922 312.99 37.622 312.846 37.238C312.702 36.854 312.63 36.35 312.63 35.726V16.718C312.894 16.67 313.314 16.61 313.89 16.538C314.466 16.442 315.018 16.394 315.546 16.394C316.098 16.394 316.578 16.442 316.986 16.538C317.418 16.61 317.778 16.754 318.066 16.97C318.354 17.186 318.57 17.486 318.714 17.87C318.858 18.254 318.93 18.758 318.93 19.382V38.39ZM326.947 38.642C325.915 38.642 325.099 38.342 324.499 37.742C323.899 37.142 323.599 36.326 323.599 35.294V16.682C323.863 16.634 324.283 16.574 324.859 16.502C325.435 16.406 325.987 16.358 326.515 16.358C327.067 16.358 327.547 16.406 327.955 16.502C328.387 16.574 328.747 16.718 329.035 16.934C329.323 17.15 329.539 17.45 329.683 17.834C329.827 18.218 329.899 18.722 329.899 19.346V33.566H338.143C338.311 33.83 338.467 34.19 338.611 34.646C338.755 35.078 338.827 35.534 338.827 36.014C338.827 36.974 338.623 37.658 338.215 38.066C337.807 38.45 337.267 38.642 336.595 38.642H326.947ZM345.404 38.642C344.372 38.642 343.556 38.342 342.956 37.742C342.356 37.142 342.056 36.326 342.056 35.294V16.682C342.32 16.634 342.74 16.574 343.316 16.502C343.892 16.406 344.444 16.358 344.972 16.358C345.524 16.358 346.004 16.406 346.412 16.502C346.844 16.574 347.204 16.718 347.492 16.934C347.78 17.15 347.996 17.45 348.14 17.834C348.284 18.218 348.356 18.722 348.356 19.346V33.566H356.6C356.768 33.83 356.924 34.19 357.068 34.646C357.212 35.078 357.284 35.534 357.284 36.014C357.284 36.974 357.08 37.658 356.672 38.066C356.264 38.45 355.724 38.642 355.052 38.642H345.404ZM365.509 17.366C365.917 17.126 366.529 16.898 367.345 16.682C368.185 16.466 369.025 16.358 369.865 16.358C371.065 16.358 372.121 16.538 373.033 16.898C373.969 17.234 374.569 17.774 374.833 18.518C375.265 19.766 375.733 21.218 376.237 22.874C376.741 24.53 377.245 26.246 377.749 28.022C378.253 29.774 378.745 31.514 379.225 33.242C379.705 34.946 380.125 36.458 380.485 37.778C380.197 38.114 379.765 38.378 379.189 38.57C378.613 38.786 377.929 38.894 377.137 38.894C376.561 38.894 376.069 38.846 375.661 38.75C375.277 38.654 374.953 38.51 374.689 38.318C374.449 38.126 374.245 37.874 374.077 37.562C373.933 37.25 373.801 36.89 373.681 36.482L373.033 33.998H366.517C366.325 34.718 366.133 35.462 365.941 36.23C365.749 36.998 365.557 37.742 365.365 38.462C365.029 38.582 364.669 38.678 364.285 38.75C363.925 38.846 363.481 38.894 362.953 38.894C361.729 38.894 360.817 38.69 360.217 38.282C359.641 37.85 359.353 37.262 359.353 36.518C359.353 36.182 359.401 35.846 359.497 35.51C359.593 35.174 359.701 34.778 359.821 34.322C359.989 33.674 360.217 32.87 360.505 31.91C360.817 30.95 361.153 29.918 361.513 28.814C361.873 27.686 362.257 26.534 362.665 25.358C363.073 24.182 363.457 23.078 363.817 22.046C364.177 20.99 364.501 20.054 364.789 19.238C365.101 18.422 365.341 17.798 365.509 17.366ZM369.829 22.01C369.493 23.018 369.109 24.146 368.677 25.394C368.269 26.618 367.897 27.866 367.561 29.138H372.025C371.689 27.842 371.341 26.582 370.981 25.358C370.645 24.11 370.333 22.994 370.045 22.01H369.829Z" fill="#FFCC00"/>
</g>
<defs>
<clipPath id="clip0_148_219">
<rect width="382.57" height="58" fill="white"/>
</clipPath>
</defs>
</svg>
