<svg width="459" height="58" viewBox="0 0 459 58" fill="none" xmlns="http://www.w3.org/2000/svg">
<g clip-path="url(#clip0_148_219)">
<path d="M30.0703 15.64C29.0703 16.44 28.3303 17.16 27.8503 17.8C27.3703 18.44 26.9503 19.3 26.5903 20.38L19.0303 43H13.8103L6.13031 20.38C5.73031 19.26 5.29031 18.38 4.81031 17.74C4.37031 17.1 3.65031 16.4 2.65031 15.64L3.13031 14.98H14.0503L14.4103 16.06L13.5703 16.3C12.9303 16.46 12.4903 16.7 12.2503 17.02C12.0103 17.3 11.8903 17.72 11.8903 18.28C11.8903 18.68 12.0303 19.32 12.3103 20.2L18.3103 38.26L24.3103 20.32C24.5903 19.44 24.7303 18.78 24.7303 18.34C24.7303 17.86 24.5903 17.48 24.3103 17.2C24.0703 16.88 23.6503 16.64 23.0503 16.48L21.9703 16.06L22.3903 14.98H29.5903L30.0703 15.64ZM51.6338 37.6C52.0338 38.72 52.4738 39.62 52.9538 40.3C53.4338 40.94 54.1738 41.64 55.1738 42.4L54.6338 43H43.7738L43.4138 41.92L44.3138 41.68C44.9138 41.48 45.3338 41.24 45.5738 40.96C45.8538 40.64 45.9938 40.22 45.9938 39.7C45.9938 39.38 45.7738 38.56 45.3338 37.24L44.1338 33.7H34.8338L34.3538 35.2C33.7538 37 33.4538 38.36 33.4538 39.28C33.4538 40.16 33.6138 40.96 33.9338 41.68L34.3538 42.4L33.8138 43H27.2138L26.7937 41.92L27.6938 41.68C28.6538 41.4 29.3738 41.02 29.8538 40.54C30.3338 40.02 30.7938 39.12 31.2338 37.84L37.3538 20.2C37.6338 19.2 37.7738 18.5 37.7738 18.1C37.7738 17.22 37.1338 16.6 35.8538 16.24L35.1938 16.06L35.6138 14.98H43.7738L51.6338 37.6ZM43.5338 32.02L39.4538 19.84L35.4338 32.02H43.5338ZM83.3002 40.96C82.4202 41.88 81.5202 42.54 80.6002 42.94C79.6802 43.34 78.6602 43.54 77.5402 43.54C75.9802 43.54 74.7802 43.16 73.9402 42.4C73.1002 41.6 72.3002 40.2 71.5402 38.2L69.2602 32.32C68.7802 31.24 68.3202 30.46 67.8802 29.98C67.4402 29.46 66.7202 29.2 65.7202 29.2V35.68C65.7202 37.52 65.8602 38.84 66.1402 39.64C66.4602 40.4 67.1802 41.28 68.3002 42.28L67.8802 43H57.0802L56.6602 41.92C57.6602 41.64 58.3802 41.38 58.8202 41.14C59.2602 40.86 59.5602 40.5 59.7202 40.06C59.8802 39.62 59.9602 38.94 59.9602 38.02V22.42C59.9602 20.5 59.8002 19.16 59.4802 18.4C59.2002 17.6 58.5002 16.72 57.3802 15.76L57.8602 14.98H68.3002L68.7202 15.94C67.4402 16.62 66.6202 17.26 66.2602 17.86C65.9002 18.46 65.7202 19.48 65.7202 20.92V28.36H65.9002L73.0402 20.26C73.4002 19.82 73.6402 19.44 73.7602 19.12C73.9202 18.76 74.0202 18.36 74.0602 17.92C74.0602 17.64 73.9002 17.1 73.5802 16.3L73.2202 15.64L74.0002 14.98H81.0802L81.4402 16.06L80.0602 16.48C78.9402 16.96 77.8802 17.76 76.8802 18.88L68.4802 28.48C70.5602 28.64 72.2002 29.08 73.4002 29.8C74.6002 30.48 75.4802 31.5 76.0402 32.86L78.8002 39.82C79.0002 40.34 79.2402 40.72 79.5202 40.96C79.8002 41.16 80.1602 41.26 80.6002 41.26C81.2402 41.26 81.9802 40.94 82.8202 40.3L83.3002 40.96ZM106.946 37.6C107.346 38.72 107.786 39.62 108.266 40.3C108.746 40.94 109.486 41.64 110.486 42.4L109.946 43H99.0863L98.7263 41.92L99.6263 41.68C100.226 41.48 100.646 41.24 100.886 40.96C101.166 40.64 101.306 40.22 101.306 39.7C101.306 39.38 101.086 38.56 100.646 37.24L99.4463 33.7H90.1463L89.6663 35.2C89.0663 37 88.7663 38.36 88.7663 39.28C88.7663 40.16 88.9263 40.96 89.2463 41.68L89.6663 42.4L89.1263 43H82.5263L82.1062 41.92L83.0063 41.68C83.9663 41.4 84.6863 41.02 85.1663 40.54C85.6463 40.02 86.1063 39.12 86.5463 37.84L92.6663 20.2C92.9463 19.2 93.0863 18.5 93.0863 18.1C93.0863 17.22 92.4463 16.6 91.1663 16.24L90.5063 16.06L90.9263 14.98H99.0863L106.946 37.6ZM98.8463 32.02L94.7663 19.84L90.7463 32.02H98.8463ZM137.413 16.3C136.773 17.22 136.313 18.16 136.033 19.12C135.793 20.08 135.673 21.32 135.673 22.84V39.58C135.673 40.42 135.853 41.12 136.213 41.68L136.753 42.4L136.213 43H129.973L116.653 20.02V35.14C116.653 36.74 116.773 38.02 117.013 38.98C117.293 39.9 117.753 40.8 118.393 41.68L118.933 42.4L118.393 43H111.793L111.373 41.92C112.413 41.64 113.133 41.38 113.533 41.14C113.973 40.9 114.273 40.56 114.433 40.12C114.593 39.68 114.673 38.98 114.673 38.02V22.18C114.673 20.42 114.513 19.14 114.193 18.34C113.873 17.54 113.173 16.68 112.093 15.76L112.573 14.98H120.373L133.753 38.14V19.96C133.753 18.76 133.493 17.92 132.973 17.44C132.493 16.96 131.473 16.5 129.913 16.06L130.273 14.98H137.413L137.953 15.64L137.413 16.3ZM154.767 38.02C154.767 38.94 154.847 39.64 155.007 40.12C155.207 40.56 155.527 40.9 155.967 41.14C156.407 41.38 157.127 41.64 158.127 41.92L157.707 43H147.267L146.787 42.4L147.267 41.68C147.947 40.76 148.407 39.84 148.647 38.92C148.927 37.96 149.047 36.7 149.007 35.14V19C149.007 18 148.907 17.34 148.707 17.02C148.547 16.66 148.207 16.48 147.687 16.48H147.027C145.667 16.48 144.647 16.9 143.967 17.74C143.287 18.54 142.587 20 141.867 22.12L140.667 21.7V14.2L141.267 13.66L141.987 14.2C142.747 14.72 144.227 14.98 146.427 14.98H157.407C159.607 14.98 161.087 14.72 161.847 14.2L162.567 13.66L163.227 14.2V21.7L161.967 22.12C161.207 19.92 160.487 18.44 159.807 17.68C159.167 16.88 158.187 16.48 156.867 16.48H156.087C155.567 16.48 155.207 16.66 155.007 17.02C154.847 17.34 154.767 18 154.767 19V38.02ZM165.647 41.92C166.567 41.68 167.227 41.44 167.627 41.2C168.067 40.92 168.347 40.56 168.467 40.12C168.627 39.64 168.707 38.94 168.707 38.02V22.42C168.707 20.5 168.547 19.16 168.227 18.4C167.947 17.6 167.227 16.72 166.067 15.76L166.607 14.98H176.747L177.167 15.94C176.007 16.62 175.267 17.26 174.947 17.86C174.627 18.42 174.467 19.44 174.467 20.92V35.68C174.467 37.56 174.607 38.9 174.887 39.7C175.207 40.46 175.927 41.32 177.047 42.28L176.567 43H166.067L165.647 41.92ZM183.945 22.84C183.945 21.24 183.825 19.98 183.585 19.06C183.345 18.14 182.885 17.22 182.205 16.3L181.725 15.64L182.205 14.98H195.465C197.665 14.98 199.145 14.72 199.905 14.2L200.625 13.66L201.225 14.2V21.7L200.025 22.12C199.305 19.96 198.585 18.48 197.865 17.68C197.185 16.88 196.205 16.48 194.925 16.48H192.225C191.185 16.48 190.505 16.68 190.185 17.08C189.865 17.44 189.705 18.24 189.705 19.48V28H194.025C195.225 28 196.105 27.88 196.665 27.64C197.265 27.4 197.705 26.92 197.985 26.2L198.285 25.36L199.065 25.84V32.56L197.745 33.04L197.505 31.72C197.345 30.88 196.905 30.3 196.185 29.98C195.465 29.66 194.305 29.5 192.705 29.5H189.705V38.56C189.705 39.76 189.885 40.56 190.245 40.96C190.605 41.32 191.405 41.5 192.645 41.5H195.585C196.785 41.5 197.725 41.08 198.405 40.24C199.125 39.4 199.805 37.94 200.445 35.86L201.705 36.28V43.48L201.045 44.02C200.485 43.62 199.845 43.34 199.125 43.18C198.405 43.06 197.405 43 196.125 43H181.065L180.645 41.92C181.645 41.64 182.365 41.38 182.805 41.14C183.245 40.86 183.545 40.5 183.705 40.06C183.865 39.62 183.945 38.94 183.945 38.02V22.84Z" fill="#DA251D"/>
<path d="M265.48 58C249.169 58 235.96 45.0237 235.96 29C235.96 12.9763 249.169 0 265.48 0C272.285 0 278.989 2.35932 284.293 6.58644C287.595 9.24068 290.297 12.6814 292.098 16.417C292.499 17.1051 292.098 17.9898 291.398 18.3831C290.697 18.7763 289.797 18.3831 289.397 17.6949C287.695 14.3525 285.294 11.3051 282.392 8.84746C277.688 5.01356 271.684 2.85085 265.48 2.85085C250.87 2.85085 238.962 14.5492 238.962 28.9017C238.962 43.2542 250.87 55.0508 265.48 55.0508C275.787 55.0508 285.194 49.1525 289.597 39.9119C289.897 39.1254 290.798 38.8305 291.598 39.2237C292.399 39.5186 292.699 40.4034 292.299 41.1898C287.495 51.4136 276.988 58 265.48 58Z" fill="#006A4E"/>
<path d="M243.165 47.7763C234.359 47.7763 228.154 45.417 226.453 40.9932C224.652 36.1763 228.254 29.9831 236.66 23.7898C237.361 23.2983 238.261 23.3966 238.762 24.0848C239.262 24.7729 239.162 25.6576 238.461 26.1492C231.457 31.3593 228.054 36.5695 229.255 40.0102C231.256 45.3187 245.066 47.1865 264.88 41.1898C265.68 40.9932 266.481 41.3864 266.781 42.1729C266.981 42.9593 266.581 43.7458 265.78 44.0407C257.374 46.5966 249.569 47.7763 243.165 47.7763Z" fill="#006A4E"/>
<path d="M303.106 15.0407C302.506 15.0407 301.905 14.6475 301.705 14.0576C300.404 10.617 294.4 8.84746 285.594 9.24069H283.292C282.492 9.24069 281.791 8.55255 281.791 7.76611C281.791 6.97967 282.492 6.29153 283.292 6.29153H285.494C295.901 5.80001 302.706 8.15933 304.507 13.0746C304.807 13.861 304.407 14.6475 303.606 14.9424C303.406 15.0407 303.306 15.0407 303.106 15.0407Z" fill="#006A4E"/>
<path d="M265.48 43.8441C265.28 43.8441 265.08 43.8441 264.88 43.7458L257.575 40.4034C256.774 40.1085 256.474 39.2237 256.874 38.4373C257.274 37.6509 258.075 37.3559 258.875 37.7492L266.181 41.0915C266.981 41.3864 267.281 42.2712 266.881 43.0576C266.581 43.5492 266.08 43.8441 265.48 43.8441Z" fill="#006A4E"/>
<path d="M262.078 51.0203C261.878 51.0203 261.677 51.0204 261.477 50.922C260.677 50.6271 260.377 49.7424 260.777 48.9559L264.179 41.7797C264.579 40.9932 265.38 40.6983 266.181 41.0915C266.981 41.3865 267.281 42.2712 266.881 43.0576L263.479 50.1356C263.178 50.7254 262.678 51.0203 262.078 51.0203Z" fill="#006A4E"/>
<path d="M274.086 40.7966C273.886 40.7966 273.686 40.7966 273.486 40.6983L261.477 35.2915C260.877 34.9966 260.477 34.3085 260.677 33.6203C260.877 32.9322 261.377 32.4407 262.078 32.4407L273.986 32.0475L278.289 29.4915L271.584 22.4136C271.284 22.1186 271.184 21.7254 271.184 21.3322C271.184 20.939 271.384 20.5458 271.684 20.2508C271.884 20.1525 273.386 18.8746 276.388 18.8746C280.09 18.8746 284.393 20.7424 289.196 24.2814L299.403 19.661C300.004 19.3661 300.904 19.2678 301.905 19.2678C303.806 19.2678 307.309 19.7593 308.21 21.8237C308.61 22.7085 309.01 24.2814 307.209 25.7559C306.308 26.4441 304.907 27.1322 303.206 27.9186L274.686 40.6983C274.486 40.7966 274.286 40.7966 274.086 40.7966ZM268.482 35.1932L274.086 37.6508L301.805 25.2644C303.306 24.5763 305.207 23.7898 305.408 23.2983C305.408 23.2983 305.408 23.2 305.308 23.1017C305.107 22.8068 303.606 22.3153 301.705 22.3153C301.005 22.3153 300.604 22.4136 300.404 22.5119L289.397 27.4271C288.896 27.6237 288.296 27.6237 287.795 27.2305C282.192 22.8068 278.389 21.922 276.187 21.922C275.787 21.922 275.387 21.922 274.987 22.0203L281.491 28.8034C281.791 29.0983 281.991 29.5898 281.891 29.983C281.791 30.3763 281.591 30.7695 281.191 31.0644L274.987 34.8C274.786 34.8983 274.486 34.9966 274.286 34.9966L268.482 35.1932Z" fill="#006A4E"/>
<path d="M354.551 15.64C353.551 16.44 352.811 17.16 352.331 17.8C351.851 18.44 351.431 19.3 351.071 20.38L343.511 43H338.291L330.611 20.38C330.211 19.26 329.771 18.38 329.291 17.74C328.851 17.1 328.131 16.4 327.131 15.64L327.611 14.98H338.531L338.891 16.06L338.051 16.3C337.411 16.46 336.971 16.7 336.731 17.02C336.491 17.3 336.371 17.72 336.371 18.28C336.371 18.68 336.511 19.32 336.791 20.2L342.791 38.26L348.791 20.32C349.071 19.44 349.211 18.78 349.211 18.34C349.211 17.86 349.071 17.48 348.791 17.2C348.551 16.88 348.131 16.64 347.531 16.48L346.451 16.06L346.871 14.98H354.071L354.551 15.64ZM356.3 41.92C357.22 41.68 357.88 41.44 358.28 41.2C358.72 40.92 359 40.56 359.12 40.12C359.28 39.64 359.36 38.94 359.36 38.02V22.42C359.36 20.5 359.2 19.16 358.88 18.4C358.6 17.6 357.88 16.72 356.72 15.76L357.26 14.98H367.4L367.82 15.94C366.66 16.62 365.92 17.26 365.6 17.86C365.28 18.42 365.12 19.44 365.12 20.92V35.68C365.12 37.56 365.26 38.9 365.54 39.7C365.86 40.46 366.58 41.32 367.7 42.28L367.22 43H356.72L356.3 41.92ZM374.477 22.72C374.477 21.28 374.417 20.2 374.297 19.48C374.177 18.72 373.937 18.08 373.577 17.56C373.217 17.04 372.637 16.44 371.837 15.76L372.377 14.98H382.817L383.237 15.94C382.317 16.46 381.657 16.92 381.257 17.32C380.857 17.72 380.577 18.22 380.417 18.82C380.297 19.42 380.237 20.36 380.237 21.64V38.38C380.237 39.66 380.417 40.5 380.777 40.9C381.137 41.3 381.937 41.5 383.177 41.5H385.457C386.617 41.5 387.537 41.12 388.217 40.36C388.897 39.56 389.597 38.06 390.317 35.86L391.517 36.28V43.48L390.917 44.02C390.397 43.62 389.817 43.34 389.177 43.18C388.537 43.06 387.577 43 386.297 43H371.537L371.177 41.92C372.177 41.64 372.897 41.38 373.337 41.14C373.777 40.86 374.077 40.5 374.237 40.06C374.397 39.62 374.477 38.94 374.477 38.02V22.72ZM397.036 22.72C397.036 21.28 396.976 20.2 396.856 19.48C396.736 18.72 396.496 18.08 396.136 17.56C395.776 17.04 395.196 16.44 394.396 15.76L394.936 14.98H405.376L405.796 15.94C404.876 16.46 404.216 16.92 403.816 17.32C403.416 17.72 403.136 18.22 402.976 18.82C402.856 19.42 402.796 20.36 402.796 21.64V38.38C402.796 39.66 402.976 40.5 403.336 40.9C403.696 41.3 404.496 41.5 405.736 41.5H408.016C409.176 41.5 410.096 41.12 410.776 40.36C411.456 39.56 412.156 38.06 412.876 35.86L414.076 36.28V43.48L413.476 44.02C412.956 43.62 412.376 43.34 411.736 43.18C411.096 43.06 410.136 43 408.856 43H394.096L393.736 41.92C394.736 41.64 395.456 41.38 395.896 41.14C396.336 40.86 396.636 40.5 396.796 40.06C396.956 39.62 397.036 38.94 397.036 38.02V22.72ZM439.454 37.6C439.854 38.72 440.294 39.62 440.774 40.3C441.254 40.94 441.994 41.64 442.994 42.4L442.454 43H431.594L431.234 41.92L432.134 41.68C432.734 41.48 433.154 41.24 433.394 40.96C433.674 40.64 433.814 40.22 433.814 39.7C433.814 39.38 433.594 38.56 433.154 37.24L431.954 33.7H422.654L422.174 35.2C421.574 37 421.274 38.36 421.274 39.28C421.274 40.16 421.434 40.96 421.754 41.68L422.174 42.4L421.634 43H415.034L414.614 41.92L415.514 41.68C416.474 41.4 417.194 41.02 417.674 40.54C418.154 40.02 418.614 39.12 419.054 37.84L425.174 20.2C425.454 19.2 425.594 18.5 425.594 18.1C425.594 17.22 424.954 16.6 423.674 16.24L423.014 16.06L423.434 14.98H431.594L439.454 37.6ZM431.354 32.02L427.274 19.84L423.254 32.02H431.354Z" fill="#FFCC00"/>
</g>
<defs>
<clipPath id="clip0_148_219">
<rect width="459" height="58" fill="white"/>
</clipPath>
</defs>
</svg>
