<svg width="434" height="58" viewBox="0 0 434 58" fill="none" xmlns="http://www.w3.org/2000/svg">
<path d="M255.746 58C239.435 58 226.225 45.0237 226.225 29C226.225 12.9763 239.435 0 255.746 0C262.551 0 269.255 2.35932 274.559 6.58644C277.861 9.24068 280.563 12.6814 282.364 16.417C282.764 17.1051 282.364 17.9898 281.664 18.3831C280.963 18.7763 280.063 18.3831 279.662 17.6949C277.961 14.3525 275.56 11.3051 272.658 8.84746C267.954 5.01356 261.95 2.85085 255.746 2.85085C241.136 2.85085 229.228 14.5492 229.228 28.9017C229.228 43.2542 241.136 55.0508 255.746 55.0508C266.053 55.0508 275.459 49.1525 279.862 39.9119C280.163 39.1254 281.063 38.8305 281.864 39.2237C282.664 39.5186 282.965 40.4034 282.564 41.1898C277.761 51.4136 267.254 58 255.746 58Z" fill="#006A4E"/>
<path d="M233.43 47.7763C224.624 47.7763 218.42 45.417 216.719 40.9932C214.918 36.1763 218.52 29.9831 226.926 23.7898C227.626 23.2983 228.527 23.3966 229.027 24.0848C229.528 24.7729 229.428 25.6576 228.727 26.1492C221.722 31.3593 218.32 36.5695 219.521 40.0102C221.522 45.3187 235.332 47.1865 255.145 41.1898C255.946 40.9932 256.747 41.3864 257.047 42.1729C257.247 42.9593 256.847 43.7458 256.046 44.0407C247.64 46.5966 239.835 47.7763 233.43 47.7763Z" fill="#006A4E"/>
<path d="M293.372 15.0407C292.771 15.0407 292.171 14.6475 291.971 14.0576C290.67 10.617 284.666 8.84746 275.86 9.24069H273.558C272.758 9.24069 272.057 8.55255 272.057 7.76611C272.057 6.97967 272.758 6.29153 273.558 6.29153H275.76C286.167 5.80001 292.972 8.15933 294.773 13.0746C295.073 13.861 294.673 14.6475 293.872 14.9424C293.672 15.0407 293.572 15.0407 293.372 15.0407Z" fill="#006A4E"/>
<path d="M255.746 43.8441C255.546 43.8441 255.346 43.8441 255.145 43.7458L247.84 40.4034C247.04 40.1085 246.74 39.2237 247.14 38.4373C247.54 37.6509 248.341 37.3559 249.141 37.7492L256.446 41.0915C257.247 41.3864 257.547 42.2712 257.147 43.0576C256.847 43.5492 256.346 43.8441 255.746 43.8441Z" fill="#006A4E"/>
<path d="M252.343 51.0203C252.143 51.0203 251.943 51.0204 251.743 50.922C250.943 50.6271 250.642 49.7424 251.043 48.9559L254.445 41.7797C254.845 40.9932 255.646 40.6983 256.446 41.0915C257.247 41.3865 257.547 42.2712 257.147 43.0576L253.744 50.1356C253.444 50.7254 252.944 51.0203 252.343 51.0203Z" fill="#006A4E"/>
<path d="M264.352 40.7966C264.152 40.7966 263.952 40.7966 263.751 40.6983L251.743 35.2915C251.143 34.9966 250.742 34.3085 250.943 33.6203C251.143 32.9322 251.643 32.4407 252.344 32.4407L264.252 32.0475L268.555 29.4915L261.85 22.4136C261.55 22.1186 261.45 21.7254 261.45 21.3322C261.45 20.939 261.65 20.5458 261.95 20.2508C262.15 20.1525 263.651 18.8746 266.653 18.8746C270.356 18.8746 274.659 20.7424 279.462 24.2814L289.669 19.661C290.27 19.3661 291.17 19.2678 292.171 19.2678C294.072 19.2678 297.575 19.7593 298.475 21.8237C298.876 22.7085 299.276 24.2814 297.475 25.7559C296.574 26.4441 295.173 27.1322 293.472 27.9186L264.952 40.6983C264.752 40.7966 264.552 40.7966 264.352 40.7966ZM258.748 35.1932L264.352 37.6508L292.071 25.2644C293.572 24.5763 295.473 23.7898 295.673 23.2983C295.673 23.2983 295.673 23.2 295.573 23.1017C295.373 22.8068 293.872 22.3153 291.971 22.3153C291.27 22.3153 290.87 22.4136 290.67 22.5119L279.662 27.4271C279.162 27.6237 278.562 27.6237 278.061 27.2305C272.457 22.8068 268.655 21.922 266.453 21.922C266.053 21.922 265.653 21.922 265.252 22.0203L271.757 28.8034C272.057 29.0983 272.257 29.5898 272.157 29.983C272.057 30.3763 271.857 30.7695 271.457 31.0644L265.252 34.8C265.052 34.8983 264.752 34.9966 264.552 34.9966L258.748 35.1932Z" fill="#006A4E"/>
<path d="M46.936 39.1256C46.6 39.4136 46.072 39.6656 45.352 39.8816C44.656 40.0976 43.888 40.2056 43.048 40.2056C42.04 40.2056 41.176 40.0616 40.456 39.7736C39.736 39.4616 39.244 39.0416 38.98 38.5136C38.716 37.9616 38.392 37.2536 38.008 36.3896C37.624 35.5016 37.216 34.5176 36.784 33.4376C36.376 32.3576 35.944 31.2176 35.488 30.0176C35.056 28.7936 34.636 27.5576 34.228 26.3095C33.82 25.0615 33.436 23.8375 33.076 22.6375C32.716 21.4376 32.404 20.3096 32.14 19.2535C32.476 18.9175 32.956 18.6175 33.58 18.3536C34.228 18.0655 34.912 17.9215 35.632 17.9215C36.52 17.9215 37.24 18.1135 37.792 18.4975C38.368 18.8575 38.788 19.5416 39.052 20.5496C39.7 22.9015 40.348 25.1575 40.996 27.3175C41.668 29.4536 42.364 31.6856 43.084 34.0136H43.3C43.948 31.7576 44.608 29.2976 45.28 26.6336C45.976 23.9696 46.636 21.3176 47.26 18.6776C47.692 18.4616 48.148 18.2815 48.628 18.1375C49.132 17.9935 49.696 17.9215 50.32 17.9215C51.208 17.9215 51.964 18.1255 52.588 18.5336C53.212 18.9175 53.524 19.5655 53.524 20.4775C53.524 21.0055 53.392 21.7735 53.128 22.7815C52.888 23.7895 52.564 24.9296 52.156 26.2016C51.772 27.4495 51.328 28.7575 50.824 30.1256C50.344 31.4936 49.852 32.7896 49.348 34.0136C48.868 35.2136 48.412 36.2816 47.98 37.2176C47.548 38.1296 47.2 38.7656 46.936 39.1256ZM60.2385 18.6776C60.6465 18.4375 61.2585 18.2095 62.0745 17.9935C62.9145 17.7775 63.7545 17.6695 64.5946 17.6695C65.7945 17.6695 66.8505 17.8495 67.7625 18.2096C68.6986 18.5456 69.2985 19.0855 69.5625 19.8295C69.9945 21.0775 70.4625 22.5295 70.9665 24.1855C71.4705 25.8415 71.9745 27.5575 72.4786 29.3335C72.9825 31.0855 73.4745 32.8256 73.9546 34.5536C74.4346 36.2576 74.8545 37.7696 75.2145 39.0896C74.9266 39.4256 74.4946 39.6896 73.9185 39.8816C73.3425 40.0976 72.6585 40.2056 71.8665 40.2056C71.2905 40.2056 70.7985 40.1576 70.3905 40.0616C70.0065 39.9656 69.6825 39.8216 69.4186 39.6296C69.1785 39.4376 68.9745 39.1856 68.8065 38.8736C68.6625 38.5616 68.5306 38.2016 68.4106 37.7936L67.7625 35.3096H61.2465C61.0545 36.0296 60.8625 36.7736 60.6705 37.5416C60.4785 38.3096 60.2865 39.0536 60.0945 39.7736C59.7585 39.8936 59.3985 39.9896 59.0145 40.0616C58.6545 40.1576 58.2105 40.2056 57.6825 40.2056C56.4585 40.2056 55.5465 40.0016 54.9465 39.5936C54.3705 39.1616 54.0825 38.5736 54.0825 37.8296C54.0825 37.4936 54.1305 37.1576 54.2265 36.8216C54.3225 36.4856 54.4305 36.0896 54.5505 35.6336C54.7185 34.9856 54.9465 34.1816 55.2345 33.2215C55.5465 32.2616 55.8825 31.2296 56.2425 30.1256C56.6025 28.9976 56.9865 27.8456 57.3945 26.6695C57.8025 25.4935 58.1865 24.3895 58.5465 23.3575C58.9065 22.3015 59.2305 21.3655 59.5185 20.5496C59.8305 19.7335 60.0705 19.1095 60.2385 18.6776ZM64.5585 23.3215C64.2225 24.3295 63.8385 25.4575 63.4065 26.7056C62.9985 27.9296 62.6265 29.1776 62.2905 30.4496H66.7546C66.4186 29.1535 66.0705 27.8935 65.7105 26.6695C65.3745 25.4215 65.0625 24.3055 64.7745 23.3215H64.5585ZM84.5009 31.7456V39.7016C84.2369 39.7736 83.8169 39.8456 83.2409 39.9176C82.6649 39.9896 82.1009 40.0256 81.5489 40.0256C80.9969 40.0256 80.5049 39.9776 80.0729 39.8816C79.6649 39.8096 79.3169 39.6656 79.0289 39.4496C78.7409 39.2336 78.5249 38.9336 78.3809 38.5496C78.2369 38.1656 78.1649 37.6616 78.1649 37.0376V18.0296C78.4289 17.9815 78.8489 17.9215 79.4249 17.8496C80.0009 17.7536 80.5529 17.7056 81.0809 17.7056C81.6329 17.7056 82.1129 17.7536 82.5209 17.8496C82.9529 17.9215 83.3129 18.0655 83.6009 18.2815C83.8889 18.4975 84.1049 18.7975 84.2489 19.1816C84.3929 19.5655 84.4649 20.0695 84.4649 20.6936V26.4175L91.9529 17.8135C93.5849 17.8135 94.7489 18.1255 95.4449 18.7495C96.1649 19.3495 96.5249 20.0695 96.5249 20.9095C96.5249 21.5336 96.3689 22.1216 96.0569 22.6735C95.7449 23.2255 95.2409 23.8495 94.5449 24.5456L90.0449 29.0456C90.6449 29.7176 91.2689 30.4015 91.9169 31.0975C92.5649 31.7935 93.2009 32.4896 93.8249 33.1856C94.4489 33.8576 95.0489 34.5056 95.6249 35.1296C96.2249 35.7536 96.7649 36.3176 97.2449 36.8216C97.2449 37.3496 97.1489 37.8176 96.9569 38.2256C96.7649 38.6336 96.5009 38.9816 96.1649 39.2696C95.8529 39.5576 95.4929 39.7736 95.0849 39.9176C94.6769 40.0616 94.2449 40.1336 93.7889 40.1336C92.8049 40.1336 92.0009 39.8936 91.3769 39.4136C90.7529 38.9096 90.1529 38.3216 89.5769 37.6496L84.5009 31.7456ZM105.379 18.6776C105.787 18.4375 106.399 18.2095 107.215 17.9935C108.055 17.7775 108.895 17.6695 109.735 17.6695C110.935 17.6695 111.991 17.8495 112.903 18.2096C113.839 18.5456 114.439 19.0855 114.703 19.8295C115.135 21.0775 115.603 22.5295 116.107 24.1855C116.611 25.8415 117.115 27.5575 117.619 29.3335C118.123 31.0855 118.615 32.8256 119.095 34.5536C119.575 36.2576 119.995 37.7696 120.355 39.0896C120.067 39.4256 119.635 39.6896 119.059 39.8816C118.483 40.0976 117.799 40.2056 117.007 40.2056C116.431 40.2056 115.939 40.1576 115.531 40.0616C115.147 39.9656 114.823 39.8216 114.559 39.6296C114.319 39.4376 114.115 39.1856 113.947 38.8736C113.803 38.5616 113.671 38.2016 113.551 37.7936L112.903 35.3096H106.387C106.195 36.0296 106.003 36.7736 105.811 37.5416C105.619 38.3096 105.427 39.0536 105.235 39.7736C104.899 39.8936 104.539 39.9896 104.155 40.0616C103.795 40.1576 103.351 40.2056 102.823 40.2056C101.599 40.2056 100.687 40.0016 100.087 39.5936C99.5112 39.1616 99.2232 38.5736 99.2232 37.8296C99.2232 37.4936 99.2712 37.1576 99.3672 36.8216C99.4632 36.4856 99.5712 36.0896 99.6912 35.6336C99.8592 34.9856 100.087 34.1816 100.375 33.2215C100.687 32.2616 101.023 31.2296 101.383 30.1256C101.743 28.9976 102.127 27.8456 102.535 26.6695C102.943 25.4935 103.327 24.3895 103.687 23.3575C104.047 22.3015 104.371 21.3655 104.659 20.5496C104.971 19.7335 105.211 19.1095 105.379 18.6776ZM109.699 23.3215C109.363 24.3295 108.979 25.4575 108.547 26.7056C108.139 27.9296 107.767 29.1776 107.431 30.4496H111.895C111.559 29.1535 111.211 27.8935 110.851 26.6695C110.515 25.4215 110.203 24.3055 109.915 23.3215H109.699ZM143.069 39.0896C142.733 39.4256 142.241 39.6776 141.593 39.8456C140.969 40.0376 140.213 40.1336 139.325 40.1336C138.437 40.1336 137.597 40.0016 136.805 39.7376C136.013 39.4736 135.365 38.8376 134.861 37.8296L131.297 30.5575C130.937 29.8136 130.613 29.1176 130.325 28.4696C130.037 27.7976 129.725 27.0295 129.389 26.1655L129.173 26.2016C129.269 27.4976 129.317 28.8175 129.317 30.1615C129.341 31.5055 129.353 32.8256 129.353 34.1216V39.7016C129.089 39.7736 128.681 39.8456 128.129 39.9176C127.601 39.9896 127.073 40.0256 126.545 40.0256C126.017 40.0256 125.549 39.9896 125.141 39.9176C124.733 39.8456 124.397 39.7016 124.133 39.4856C123.869 39.2696 123.665 38.9816 123.521 38.6216C123.377 38.2376 123.305 37.7456 123.305 37.1456V19.1455C123.641 18.6655 124.157 18.3055 124.853 18.0655C125.549 17.8256 126.293 17.7056 127.085 17.7056C127.973 17.7056 128.813 17.8495 129.605 18.1375C130.421 18.4015 131.069 19.0256 131.549 20.0096L135.149 27.2816C135.509 28.0256 135.833 28.7335 136.121 29.4055C136.409 30.0536 136.721 30.8096 137.057 31.6736L137.237 31.6375C137.141 30.3416 137.081 29.0456 137.057 27.7495C137.033 26.4535 137.021 25.1575 137.021 23.8615V18.0296C137.285 17.9575 137.681 17.8855 138.209 17.8135C138.761 17.7415 139.301 17.7056 139.829 17.7056C140.885 17.7056 141.689 17.8975 142.241 18.2815C142.793 18.6415 143.069 19.4095 143.069 20.5855V39.0896ZM146.731 23.0695C146.563 22.8055 146.407 22.4455 146.263 21.9895C146.119 21.5335 146.047 21.0535 146.047 20.5496C146.047 19.6135 146.251 18.9415 146.659 18.5336C147.091 18.1255 147.643 17.9215 148.315 17.9215H164.011C164.179 18.1855 164.335 18.5455 164.479 19.0015C164.623 19.4575 164.695 19.9376 164.695 20.4415C164.695 21.3776 164.479 22.0496 164.047 22.4576C163.639 22.8655 163.099 23.0695 162.427 23.0695H158.431V39.7016C158.167 39.7736 157.747 39.8456 157.171 39.9176C156.619 39.9896 156.067 40.0256 155.515 40.0256C154.963 40.0256 154.471 39.9776 154.039 39.8816C153.631 39.8096 153.283 39.6656 152.995 39.4496C152.707 39.2336 152.491 38.9336 152.347 38.5496C152.203 38.1656 152.131 37.6616 152.131 37.0376V23.0695H146.731ZM174.043 39.7016C173.779 39.7736 173.359 39.8456 172.783 39.9176C172.231 39.9896 171.679 40.0256 171.127 40.0256C170.575 40.0256 170.083 39.9776 169.651 39.8816C169.243 39.8096 168.895 39.6656 168.607 39.4496C168.319 39.2336 168.103 38.9336 167.959 38.5496C167.815 38.1656 167.743 37.6616 167.743 37.0376V18.0296C168.007 17.9815 168.427 17.9215 169.003 17.8496C169.579 17.7536 170.131 17.7056 170.659 17.7056C171.211 17.7056 171.691 17.7536 172.099 17.8496C172.531 17.9215 172.891 18.0655 173.179 18.2815C173.467 18.4975 173.683 18.7975 173.827 19.1816C173.971 19.5655 174.043 20.0695 174.043 20.6936V39.7016ZM178.712 21.3776C178.712 20.3455 179.012 19.5295 179.612 18.9295C180.212 18.3296 181.028 18.0296 182.06 18.0296H193.94C194.108 18.2935 194.252 18.6415 194.372 19.0735C194.516 19.5055 194.588 19.9615 194.588 20.4415C194.588 21.3535 194.384 22.0015 193.976 22.3856C193.592 22.7696 193.076 22.9616 192.428 22.9616H184.832V26.3095H192.932C193.1 26.5736 193.244 26.9216 193.364 27.3536C193.508 27.7616 193.58 28.2056 193.58 28.6856C193.58 29.5976 193.388 30.2456 193.004 30.6296C192.62 31.0136 192.104 31.2056 191.456 31.2056H184.832V34.9856H194.084C194.252 35.2496 194.396 35.5976 194.516 36.0296C194.66 36.4616 194.732 36.9176 194.732 37.3976C194.732 38.3096 194.528 38.9696 194.12 39.3776C193.736 39.7616 193.22 39.9536 192.572 39.9536H182.06C181.028 39.9536 180.212 39.6536 179.612 39.0536C179.012 38.4536 178.712 37.6376 178.712 36.6056V21.3776Z" fill="#DA251D"/>
<path d="M334.079 39.1256C333.743 39.4136 333.215 39.6656 332.495 39.8816C331.799 40.0976 331.031 40.2056 330.191 40.2056C329.183 40.2056 328.319 40.0616 327.599 39.7736C326.879 39.4616 326.387 39.0416 326.123 38.5136C325.859 37.9616 325.535 37.2536 325.151 36.3896C324.767 35.5016 324.359 34.5176 323.927 33.4376C323.519 32.3576 323.087 31.2176 322.631 30.0176C322.199 28.7936 321.779 27.5576 321.371 26.3095C320.963 25.0615 320.579 23.8375 320.219 22.6375C319.859 21.4376 319.547 20.3096 319.283 19.2535C319.619 18.9175 320.099 18.6175 320.723 18.3536C321.371 18.0655 322.055 17.9215 322.775 17.9215C323.663 17.9215 324.383 18.1135 324.935 18.4975C325.511 18.8575 325.931 19.5416 326.195 20.5496C326.843 22.9015 327.491 25.1575 328.139 27.3175C328.811 29.4536 329.507 31.6856 330.227 34.0136H330.443C331.091 31.7576 331.751 29.2976 332.423 26.6336C333.119 23.9696 333.779 21.3176 334.403 18.6776C334.835 18.4616 335.291 18.2815 335.771 18.1375C336.275 17.9935 336.839 17.9215 337.463 17.9215C338.351 17.9215 339.107 18.1255 339.731 18.5336C340.355 18.9175 340.667 19.5655 340.667 20.4775C340.667 21.0055 340.535 21.7735 340.271 22.7815C340.031 23.7895 339.707 24.9296 339.299 26.2016C338.915 27.4495 338.471 28.7575 337.967 30.1256C337.487 31.4936 336.995 32.7896 336.491 34.0136C336.011 35.2136 335.555 36.2816 335.123 37.2176C334.691 38.1296 334.343 38.7656 334.079 39.1256ZM350.128 39.7016C349.864 39.7736 349.444 39.8456 348.868 39.9176C348.316 39.9896 347.764 40.0256 347.212 40.0256C346.66 40.0256 346.168 39.9776 345.736 39.8816C345.328 39.8096 344.98 39.6656 344.692 39.4496C344.404 39.2336 344.188 38.9336 344.044 38.5496C343.9 38.1656 343.828 37.6616 343.828 37.0376V18.0296C344.092 17.9815 344.512 17.9215 345.088 17.8496C345.664 17.7536 346.216 17.7056 346.744 17.7056C347.296 17.7056 347.776 17.7536 348.184 17.8496C348.616 17.9215 348.976 18.0655 349.264 18.2815C349.552 18.4975 349.768 18.7975 349.912 19.1816C350.056 19.5655 350.128 20.0695 350.128 20.6936V39.7016ZM358.144 39.9536C357.112 39.9536 356.296 39.6536 355.696 39.0536C355.096 38.4536 354.796 37.6376 354.796 36.6056V17.9935C355.06 17.9455 355.48 17.8855 356.056 17.8135C356.632 17.7175 357.184 17.6695 357.712 17.6695C358.264 17.6695 358.744 17.7175 359.152 17.8135C359.584 17.8855 359.944 18.0295 360.232 18.2455C360.52 18.4615 360.736 18.7615 360.88 19.1455C361.024 19.5295 361.096 20.0335 361.096 20.6575V34.8776H369.34C369.508 35.1416 369.664 35.5016 369.808 35.9576C369.952 36.3896 370.024 36.8456 370.024 37.3256C370.024 38.2856 369.82 38.9696 369.412 39.3776C369.004 39.7616 368.464 39.9536 367.792 39.9536H358.144ZM376.602 39.9536C375.57 39.9536 374.754 39.6536 374.154 39.0536C373.554 38.4536 373.254 37.6376 373.254 36.6056V17.9935C373.518 17.9455 373.938 17.8855 374.514 17.8135C375.09 17.7175 375.642 17.6695 376.17 17.6695C376.722 17.6695 377.202 17.7175 377.61 17.8135C378.042 17.8855 378.402 18.0295 378.69 18.2455C378.978 18.4615 379.194 18.7615 379.338 19.1455C379.482 19.5295 379.554 20.0335 379.554 20.6575V34.8776H387.798C387.966 35.1416 388.122 35.5016 388.266 35.9576C388.41 36.3896 388.482 36.8456 388.482 37.3256C388.482 38.2856 388.278 38.9696 387.87 39.3776C387.462 39.7616 386.922 39.9536 386.25 39.9536H376.602ZM396.706 18.6776C397.114 18.4375 397.726 18.2095 398.542 17.9935C399.382 17.7775 400.222 17.6695 401.062 17.6695C402.262 17.6695 403.318 17.8495 404.23 18.2096C405.166 18.5456 405.766 19.0855 406.03 19.8295C406.462 21.0775 406.93 22.5295 407.434 24.1855C407.938 25.8415 408.442 27.5575 408.946 29.3335C409.45 31.0855 409.942 32.8256 410.422 34.5536C410.902 36.2576 411.322 37.7696 411.682 39.0896C411.394 39.4256 410.962 39.6896 410.386 39.8816C409.81 40.0976 409.126 40.2056 408.334 40.2056C407.758 40.2056 407.266 40.1576 406.858 40.0616C406.474 39.9656 406.15 39.8216 405.886 39.6296C405.646 39.4376 405.442 39.1856 405.274 38.8736C405.13 38.5616 404.998 38.2016 404.878 37.7936L404.23 35.3096H397.714C397.522 36.0296 397.33 36.7736 397.138 37.5416C396.946 38.3096 396.754 39.0536 396.562 39.7736C396.226 39.8936 395.866 39.9896 395.482 40.0616C395.122 40.1576 394.678 40.2056 394.15 40.2056C392.926 40.2056 392.014 40.0016 391.414 39.5936C390.838 39.1616 390.55 38.5736 390.55 37.8296C390.55 37.4936 390.598 37.1576 390.694 36.8216C390.79 36.4856 390.898 36.0896 391.018 35.6336C391.186 34.9856 391.414 34.1816 391.702 33.2215C392.014 32.2616 392.35 31.2296 392.71 30.1256C393.07 28.9976 393.454 27.8456 393.862 26.6695C394.27 25.4935 394.654 24.3895 395.014 23.3575C395.374 22.3015 395.698 21.3655 395.986 20.5496C396.298 19.7335 396.538 19.1095 396.706 18.6776ZM401.026 23.3215C400.69 24.3295 400.306 25.4575 399.874 26.7056C399.466 27.9296 399.094 29.1776 398.758 30.4496H403.222C402.886 29.1535 402.538 27.8935 402.178 26.6695C401.842 25.4215 401.53 24.3055 401.242 23.3215H401.026Z" fill="#FFCC00"/>
</svg>
